# xmcd
#
# Track frame offsets:
#	150
#	16113
#	32303
#	47074
#	58974
#	72459
#	90525
#	104303
#	119594
#	136420
#	153209
#	172220
#	194230
#	205575
#	230605
#	245096
#	263305
#
# Disc length: 3701
#
# Revision: 3
# Processed by: cddbd v1.5.1PL0 Copyright (c) Steve Scherf et al.
# Submitted via: CDex 1.51
# Normalized: r2:DSETVAR1
#
DISCID=ef0e7311
DTITLE=Various Artist - CDX 352
DYEAR=2004
DGENRE=Country
TTITLE0=Donovan Chapman - Good Problem To Have
TTITLE1=Carolina Rain - I Ain't Scared
TTITLE2=Jessi Alexander - Make Me Stay Or Make Me Go
TTITLE3=Ricky Skaggs - Spread A Little Love Around
TTITLE4=Leann Rimes - Nothing 'Bout Love Makes Sense
TTITLE5=Kenny Chesney - The Woman With You
TTITLE6=Jerry Sartain with Rhonda Vincent - Two People In Love
TTITLE7=Travis Tritt with John Mellencamp - What Say You
TTITLE8=Rachel Proctor - Where I Belong
TTITLE9=Becky Hobbs - No More War
TTITLE10=The Rider - Hello Brown Eyes
TTITLE11=Burrito Deluxe - Rex Bob Lowenstein
TTITLE12=Kenny Nash - Sometimes In Life
TTITLE13=Roy D. Mercer - Tranny Cabbie
TTITLE14=Pete Schlegel - Whole Lotta Liquor To Like Her
TTITLE15=Brittany Wells - From Harms Way
TTITLE16=Keith Bryant - Ridin' With The Legend
EXTD=YEAR: 2004
EXTT0=
EXTT1=
EXTT2=
EXTT3=
EXTT4=
EXTT5=
EXTT6=
EXTT7=
EXTT8=
EXTT9=
EXTT10=
EXTT11=
EXTT12=
EXTT13=
EXTT14=
EXTT15=
EXTT16=
PLAYORDER=
